# xmcd
# 
# Track frame offsets:
#     150
#     26520
#     43411
#     67867
#     87716
#     105478
#     125430
#     148882
# 
# Disc length: 2343
# 
# Revision: 1
# Processed by: cddbd v1.5.2PL0 Copyright (c) Steve Scherf et al.
# Submitted via: fre:ac v1.0.31
# 
DISCID=71092508
DTITLE=Jorn - Live In Black CD1
DYEAR=2011
DGENRE=Hard Rock
TTITLE0=Road Of The Cross
TTITLE1=Shadow People
TTITLE2=Below
TTITLE3=We Brought The Angels Down
TTITLE4=Stormcrow
TTITLE5=Spirit Black
TTITLE6=The Inner Road
TTITLE7=Man Of The Dark
EXTD=
EXTT0=
EXTT1=
EXTT2=
EXTT3=
EXTT4=
EXTT5=
EXTT6=
EXTT7=
PLAYORDER=
